<svg width="256" height="256" viewBox="0 0 100 100" xmlns="http://www.w3.org/2000/svg" preserveAspectRatio="xMidYMid meet">
  <defs>
    <!-- Gradient for the funnel and lightning bolt -->
    <linearGradient id="grad1" x1="0%" y1="0%" x2="0%" y2="100%">
      <stop offset="0%" style="stop-color:#F000FF; stop-opacity:1" />
      <stop offset="100%" style="stop-color:#8E2DE2; stop-opacity:1" />
    </linearGradient>
    <!-- Gradient for the magnifying glass handle -->
    <linearGradient id="grad2" x1="0%" y1="0%" x2="100%" y2="100%">
      <stop offset="0%" style="stop-color:#4A00E0; stop-opacity:1" />
      <stop offset="100%" style="stop-color:#8E2DE2; stop-opacity:1" />
    </linearGradient>
  </defs>

  <!-- Main Icon Group -->
  <g id="icon-group" fill="none" stroke-width="3" stroke-linecap="round" stroke-linejoin="round">

    <!-- Magnifying Glass -->
    <g id="magnifying-glass">
      <!-- Handle -->
      <path d="M68 68 L85 85" stroke="url(#grad2)" stroke-width="8"/>
      <!-- Lens (Thicker) -->
      <circle cx="45" cy="45" r="30" stroke="#0072FF" stroke-width="9"/>
    </g>

    <!-- Gear (More Pronounced) -->
    <g id="gear" transform="translate(45, 45) scale(0.55)">
      <path d="M0 -28 L5 -20 L15 -20 L20 -15 L20 -5 L28 0 L20 5 L20 15 L15 20 L5 20 L0 28 L-5 20 L-15 20 L-20 15 L-20 5 L-28 0 L-20 -5 L-20 -15 L-15 -20 L-5 -20 Z" stroke="#00D2FF" stroke-width="8"/>
      <circle cx="0" cy="0" r="12" stroke="#00D2FF" stroke-width="8"/>
    </g>

    <!-- Funnel / Filter -->
    <g id="filter" transform="translate(75, 20)">
      <path d="M0 0 H20" stroke="url(#grad1)"/>
      <path d="M2 8 H15" stroke="url(#grad1)"/>
      <path d="M4 16 H10" stroke="url(#grad1)"/>
      <path d="M6 24 H8" stroke="url(#grad1)"/>
    </g>

    <!-- Lightning Bolt -->
    <g id="lightning-bolt" transform="translate(78, 50)">
       <path d="M 5 0 L -5 10 L 2 10 L -2 20 L 8 8 L 1 8 Z" stroke="url(#grad1)" fill="url(#grad1)"/>
    </g>

  </g>
</svg>